<svg xmlns="http://www.w3.org/2000/svg" width="1024" height="1024" viewBox="0 0 1024 1024" version="1.1"><path d="M 214 163.526 C 213.175 163.688, 209.125 164.363, 205 165.026 C 184.507 168.321, 168.041 176.224, 154.121 189.443 C 142.603 200.382, 136.286 210.676, 131.259 226.703 L 128.500 235.500 128.203 502 C 127.902 772.067, 128.065 786.766, 131.524 801.737 C 137.452 827.396, 153.648 848.522, 175.383 858.947 C 180.948 861.616, 189.325 864.857, 194 866.150 L 202.500 868.500 505.500 868.500 L 808.500 868.500 817.307 866.255 C 854.552 856.762, 876.278 833.758, 883.386 796.289 C 885.645 784.380, 890.011 733.218, 898.985 613.500 C 912.095 438.612, 912.736 426.366, 909.545 411.500 C 905.441 392.381, 894.611 376.684, 880.653 369.622 L 875.154 366.840 874.772 325.670 C 874.404 286.053, 874.304 284.236, 872.107 277.500 C 863.981 252.591, 845.400 237.606, 817.016 233.072 C 812.844 232.405, 764.888 231.958, 682.516 231.818 C 612.107 231.698, 542.350 231.339, 527.500 231.020 C 486.260 230.134, 482.884 228.779, 455.540 202.129 C 434.933 182.045, 425.742 175.838, 406.625 169.097 C 389.598 163.094, 387.827 162.997, 297.500 163.120 C 252.400 163.182, 214.825 163.364, 214 163.526 M 213.500 182.964 C 202.276 183.834, 188.288 188, 179.021 193.233 C 171.631 197.405, 160.236 209.099, 156.348 216.500 C 154.614 219.800, 152.140 225.650, 150.849 229.500 L 148.504 236.500 148.243 322 L 147.982 407.500 150.889 402.463 C 159.627 387.327, 180.020 373.479, 202.881 367.159 L 212.500 364.500 534.250 364.236 L 856 363.973 855.992 330.236 C 855.988 311.681, 855.526 293.671, 854.965 290.213 C 851.976 271.797, 842.666 260.375, 826.042 254.731 L 819.500 252.510 661 251.983 L 502.500 251.456 494.159 249.134 C 472.619 243.137, 463.502 237.342, 440.470 215.012 C 422.601 197.686, 415.128 192.359, 402.418 187.883 C 387.801 182.735, 388.936 182.797, 303.500 182.483 C 259.500 182.321, 219 182.537, 213.500 182.964 M 210 385.542 C 184.035 391.090, 164.493 407.614, 154.574 432.407 C 148.953 446.457, 148.859 447.618, 147.830 515.500 C 146.650 593.408, 147.433 776.146, 148.996 787.500 C 151.694 807.097, 157.485 820.457, 167.813 830.908 C 178.944 842.172, 191.640 847.826, 210.623 849.974 C 217.743 850.779, 301.866 851, 512 850.765 C 788.486 850.456, 803.886 850.347, 811 848.642 C 839.753 841.749, 856.327 826.028, 863.344 798.994 C 866.090 788.413, 867.639 774.405, 871.966 721 C 877.737 649.787, 886.188 535.475, 891.020 463.269 C 892.619 439.375, 892.471 421.735, 890.603 413.741 C 887.557 400.697, 880.609 391.022, 871.149 386.649 L 866.500 384.500 541.500 384.326 C 267.466 384.180, 215.481 384.371, 210 385.542" stroke="none" fill="#231a13" fill-rule="evenodd"/><path d="M 213.500 182.964 C 202.276 183.834, 188.288 188, 179.021 193.233 C 171.631 197.405, 160.236 209.099, 156.348 216.500 C 154.614 219.800, 152.140 225.650, 150.849 229.500 L 148.504 236.500 148.243 322 L 147.982 407.500 150.889 402.463 C 159.627 387.327, 180.020 373.479, 202.881 367.159 L 212.500 364.500 534.250 364.236 L 856 363.973 855.992 330.236 C 855.988 311.681, 855.526 293.671, 854.965 290.213 C 851.976 271.797, 842.666 260.375, 826.042 254.731 L 819.500 252.510 661 251.983 L 502.500 251.456 494.159 249.134 C 472.619 243.137, 463.502 237.342, 440.470 215.012 C 422.601 197.686, 415.128 192.359, 402.418 187.883 C 387.801 182.735, 388.936 182.797, 303.500 182.483 C 259.500 182.321, 219 182.537, 213.500 182.964 M 210 385.542 C 184.035 391.090, 164.493 407.614, 154.574 432.407 C 148.953 446.457, 148.859 447.618, 147.830 515.500 C 146.650 593.408, 147.433 776.146, 148.996 787.500 C 151.694 807.097, 157.485 820.457, 167.813 830.908 C 178.944 842.172, 191.640 847.826, 210.623 849.974 C 217.743 850.779, 301.866 851, 512 850.765 C 788.486 850.456, 803.886 850.347, 811 848.642 C 839.753 841.749, 856.327 826.028, 863.344 798.994 C 866.090 788.413, 867.639 774.405, 871.966 721 C 877.737 649.787, 886.188 535.475, 891.020 463.269 C 892.619 439.375, 892.471 421.735, 890.603 413.741 C 887.557 400.697, 880.609 391.022, 871.149 386.649 L 866.500 384.500 541.500 384.326 C 267.466 384.180, 215.481 384.371, 210 385.542" stroke="none" fill="#fbc03b" fill-rule="evenodd"/></svg>